<svg xmlns="http://www.w3.org/2000/svg" width="512" height="512" viewBox="0 0 512 512">
  <defs>
    <radialGradient id="g1" cx="30%" cy="20%" r="80%">
      <stop offset="0%" stop-color="#8b5cf6" stop-opacity="0.9"/>
      <stop offset="60%" stop-color="#6366f1" stop-opacity="0.55"/>
      <stop offset="100%" stop-color="#0b1020" stop-opacity="1"/>
    </radialGradient>
    <linearGradient id="g2" x1="0" y1="0" x2="0" y2="1">
      <stop offset="0%" stop-color="#ffffff" stop-opacity="0.20"/>
      <stop offset="100%" stop-color="#ffffff" stop-opacity="0.06"/>
    </linearGradient>
  </defs>

  <rect x="28" y="28" width="456" height="456" rx="96" fill="url(#g1)"/>
  <rect x="28" y="28" width="456" height="456" rx="96" fill="url(#g2)"/>

  <!-- 3x3 grid -->
  <g transform="translate(122 140)">
    <g fill="#0f172a" opacity="0.55">
      <rect x="0" y="0" width="76" height="76" rx="18"/>
      <rect x="86" y="0" width="76" height="76" rx="18"/>
      <rect x="172" y="0" width="76" height="76" rx="18"/>
      <rect x="0" y="86" width="76" height="76" rx="18"/>
      <rect x="86" y="86" width="76" height="76" rx="18"/>
      <rect x="172" y="86" width="76" height="76" rx="18"/>
      <rect x="0" y="172" width="76" height="76" rx="18"/>
      <rect x="86" y="172" width="76" height="76" rx="18"/>
      <rect x="172" y="172" width="76" height="76" rx="18"/>
    </g>

    <!-- active tile -->
    <rect x="86" y="86" width="76" height="76" rx="18" fill="#6366f1"/>
    <circle cx="124" cy="124" r="22" fill="#ffffff" opacity="0.18"/>
  </g>

  <text x="256" y="392" text-anchor="middle"
        font-family="system-ui, -apple-system, Segoe UI, Roboto, Helvetica, Arial"
        font-size="36" font-weight="800" fill="#e5e7eb" opacity="0.92">RF</text>
</svg>
